<?xml version="1.0" encoding="UTF-8"?>
<svg version="1.1" xmlns="http://www.w3.org/2000/svg" width="3163" height="1201">
<path d="M0 0 C0 124.08 0 248.16 0 376 C92.33357721 373.28430655 182.04474961 366.25307259 272.65638733 349.1910553 C279.22437894 347.95447864 285.7983473 346.7521522 292.375 345.5625 C293.27863281 345.39862793 294.18226563 345.23475586 295.11328125 345.06591797 C297.07543503 344.71013846 299.037701 344.35497768 301 344 C291.43321073 434.38966412 246.65634485 526.90120095 178.51171875 618.08984375 C176.11279885 620.86930771 173.79986101 623.70090303 171.5 626.5625 C167.40449389 631.59412179 163.07778668 636.36688817 158.6640625 641.1171875 C156.36105963 643.60929325 154.11353171 646.13782103 151.875 648.6875 C147.54856572 653.5068192 143.0076893 658.10104843 138.4375 662.6875 C137.72899902 663.40059326 137.02049805 664.11368652 136.29052734 664.84838867 C132.27870094 668.84859333 128.16841432 672.66852752 123.87768555 676.36743164 C121.08079067 678.79921373 118.39049082 681.34003985 115.6875 683.875 C109.98541755 689.17297189 104.08614272 694.14577089 98 699 C96.88208806 699.9092663 95.7649394 700.8194716 94.6484375 701.73046875 C70.16115377 721.63097023 44.05655721 738.89178204 16.6875 754.5625 C15.83462402 755.05089355 14.98174805 755.53928711 14.10302734 756.04248047 C9.12515498 758.86600142 4.1365216 761.4317392 -1 764 C-1 636.29 -1 508.58 -1 377 C-19.15 377 -37.3 377 -56 377 C-81.01767269 376.11441867 -81.01767269 376.11441867 -92.52539062 375.359375 C-93.41154053 375.30136719 -94.29769043 375.24335937 -95.21069336 375.18359375 C-96.13116455 375.12300781 -97.05163574 375.06242187 -98 375 C-99.46578491 374.90525391 -99.46578491 374.90525391 -100.96118164 374.80859375 C-161.09467012 370.9040082 -220.76351651 363.46793202 -279.82873535 351.44195557 C-281.36156617 351.12995163 -282.89508357 350.82131165 -284.42907715 350.51507568 C-286.9111839 350.01594395 -289.38935034 349.50034004 -291.8671875 348.98046875 C-292.63547882 348.82765945 -293.40377014 348.67485016 -294.19534302 348.51741028 C-296.96999565 347.92099455 -299.47203201 347.31835441 -301.91674805 345.84423828 C-303.63065677 342.92630578 -303.99078468 339.80919678 -304.46484375 336.51171875 C-304.58306488 335.75317596 -304.70128601 334.99463318 -304.8230896 334.21310425 C-305.2085202 331.70645969 -305.57398636 329.19741029 -305.9375 326.6875 C-306.19880934 324.93806929 -306.46012123 323.18863895 -306.72143555 321.43920898 C-308.52376949 309.17693493 -310.02200409 296.88856393 -311.3125 284.5625 C-311.4340596 283.40492691 -311.4340596 283.40492691 -311.55807495 282.22396851 C-313.22732417 266.12549913 -314.15785647 250.14775965 -314.1328125 233.96875 C-314.13348879 232.39652491 -314.13446149 230.82429993 -314.13571167 229.2520752 C-314.13716992 225.9916075 -314.13509298 222.73116755 -314.13037109 219.47070312 C-314.12463664 215.31076638 -314.12798804 211.15089365 -314.13394356 206.99095917 C-314.13756778 203.75833661 -314.13640269 200.5257291 -314.13381577 197.29310608 C-314.13315361 195.75903821 -314.13394974 194.22496893 -314.13629532 192.69090271 C-314.15380746 178.0442982 -314.15380746 178.0442982 -313 171 C-311.99324219 170.84144531 -310.98648438 170.68289063 -309.94921875 170.51953125 C-280.21917299 165.665354 -254.11487196 155.67448607 -231 136 C-229.515 134.74509766 -229.515 134.74509766 -228 133.46484375 C-221.58077045 127.8391023 -216.1671399 121.78187112 -211 115 C-210.566875 114.43651855 -210.13375 113.87303711 -209.6875 113.29248047 C-199.05974068 99.40770542 -190.49470559 84.77793603 -183 69 C-182.6714502 68.32163086 -182.34290039 67.64326172 -182.00439453 66.94433594 C-173.54420811 49.37984935 -168.28323486 30.71001043 -163 12 C-129.80321057 6.62373299 -96.5874494 2.8164742 -63 1 C-61.52225098 0.91322998 -61.52225098 0.91322998 -60.01464844 0.82470703 C-39.9939522 -0.33736232 -20.09157637 0 0 0 Z " fill="#FFFFFF" transform="translate(536,246)"/>
<path d="M0 0 C4.75725226 0.00344721 9.51435733 -0.0060366 14.27157962 -0.02250177 C48.58855906 -0.13839552 82.67828491 0.53343469 116.89364994 3.31367987 C117.93607601 3.3968414 117.93607601 3.3968414 118.99956119 3.48168296 C126.64312471 4.09190029 134.26983128 4.80723118 141.89364994 5.62617987 C142.87477756 5.7283985 143.85590518 5.83061713 144.86676395 5.93593329 C170.70352702 8.63627484 196.38911723 12.37899874 221.89364994 17.31367987 C222.08362552 18.1311872 222.27360111 18.94869452 222.46933353 19.7909748 C232.63404325 63.07092134 247.11100053 106.87662706 274.89364994 142.31367987 C275.65161869 143.28047675 276.40958744 144.24727362 277.19052494 145.24336737 C305.77315061 180.8238083 342.5702843 205.10671766 388.49130619 210.21992987 C392.31457923 210.62145534 396.13685488 210.99519236 399.96689212 211.32613105 C401.11448001 211.42901435 402.2620679 211.53189765 403.44443119 211.63789862 C404.47221683 211.72128485 405.50000247 211.80467108 406.55893314 211.89058417 C407.71461795 212.10001654 407.71461795 212.10001654 408.89364994 212.31367987 C410.41985917 215.36609834 410.37966479 218.63121844 410.64755619 221.98946112 C410.71300128 222.796379 410.77844638 223.60329688 410.84587467 224.43466681 C415.66251519 285.89837968 413.07593525 347.27391892 404.89364994 408.31367987 C404.78321353 409.14129828 404.67277713 409.96891669 404.55899417 410.82161444 C398.77278715 453.89187722 389.1436523 496.21835422 376.89511478 537.89668769 C376.25625577 540.07647088 375.62316139 542.2579576 374.99765384 544.44160956 C363.62990504 584.10370435 347.51910665 622.43446633 329.32138431 659.40694159 C327.93188721 662.23583224 326.5600837 665.07275065 325.19052494 667.91133612 C318.43926392 681.79187936 310.85777254 695.09684337 302.89364994 708.31367987 C302.24170658 709.39794257 301.58976322 710.48220526 300.918064 711.59932441 C285.1834321 737.68528678 267.98005595 762.56415464 248.89364994 786.31367987 C248.09048343 787.31407294 248.09048343 787.31407294 247.27109134 788.33467597 C238.13373137 799.6954165 228.67457657 810.61727091 218.75033939 821.29732245 C217.3648691 822.80193772 215.99010353 824.31642323 214.62094486 825.83589667 C207.26229535 833.96797988 199.59736628 841.76368553 191.83139408 849.50630683 C189.69537637 851.63692622 187.56480875 853.7728921 185.43466556 855.909383 C184.05282487 857.29056337 182.67067427 858.67143377 181.28818119 860.05196112 C180.66401813 860.67814841 180.03985507 861.3043357 179.39677799 861.94949836 C175.60586263 865.72064782 171.69791216 869.30455192 167.64690006 872.79510993 C165.30038681 874.82753214 163.03888648 876.94673905 160.76864994 879.06367987 C156.15052079 883.2752612 151.36864143 887.17890534 146.4270972 891.00288886 C142.62584192 893.94498783 138.88460446 896.9462325 135.1758765 900.00410956 C125.68616431 907.8188899 115.86201666 915.12331351 105.89364994 922.31367987 C105.19159427 922.8225373 104.48953861 923.33139472 103.76620853 923.85567206 C76.54700625 943.54174112 47.79164024 961.48038161 18.06308353 977.12862128 C16.01895356 978.24523245 14.07073646 979.45964011 12.10068119 980.70039862 C8.41220729 982.55586722 7.71820519 982.43597028 3.89364994 981.31367987 C1.92849779 980.4148451 -0.00469933 979.44460617 -1.91103756 978.42696112 C-3.04049801 977.8252912 -4.16995846 977.22362128 -5.33364499 976.60371894 C-6.54993593 975.94525775 -7.76582851 975.28606027 -8.98135006 974.62617987 C-9.60039212 974.29243354 -10.21943417 973.9586872 -10.85723507 973.61482733 C-29.1524922 963.74075777 -46.75496042 952.75420471 -64.10635006 941.31367987 C-64.7341235 940.90198554 -65.36189694 940.4902912 -66.00869381 940.06612128 C-87.32705015 926.07733496 -107.65089878 910.93688707 -127.35049069 894.75362128 C-128.91570599 893.47002286 -130.48716706 892.19404916 -132.05947506 890.91914862 C-152.01233186 874.72933061 -152.01233186 874.72933061 -159.44350827 866.97554511 C-161.04101314 865.37897843 -162.69440271 863.93822755 -164.42275631 862.48555487 C-170.31628463 857.36042499 -175.77777646 851.79135538 -181.28823483 846.2621662 C-183.16464482 844.38039713 -185.04633976 842.50403249 -186.92861569 840.628133 C-192.32844656 835.23125323 -197.68170812 829.84913221 -202.63100827 824.02974433 C-204.67085863 821.65706384 -206.82865962 819.40635464 -208.98745358 817.14229316 C-221.49778098 804.00163563 -232.67147076 789.81721277 -243.57558835 775.33418769 C-244.99670969 773.45839817 -246.43608512 771.59874589 -247.88369381 769.74336737 C-267.02064677 745.01705892 -283.34560138 718.03582555 -298.68056881 690.84053534 C-300.01499077 688.47559232 -301.35709418 686.1151607 -302.70010006 683.75508612 C-322.44520697 648.873357 -337.64257492 612.00146053 -351.10635006 574.31367987 C-351.35213803 573.62594489 -351.59792599 572.9382099 -351.85116208 572.22963446 C-364.04920367 537.9708323 -373.10280678 502.90091127 -380.66616452 467.36232489 C-381.26842045 464.55939637 -381.89898584 461.7630012 -382.52822506 458.96602362 C-399.02465776 383.70226768 -402.81089104 303.56927199 -396.86025631 226.90742987 C-396.79977108 226.12208869 -396.73928586 225.3367475 -396.67696774 224.5276081 C-396.34060707 220.41117268 -395.85423694 216.38089432 -395.10635006 212.31367987 C-393.95356564 212.21663764 -393.95356564 212.21663764 -392.77749264 212.11763495 C-358.1697366 209.11353423 -324.83141811 201.64288816 -297.10635006 179.31367987 C-295.76056881 178.25213691 -295.76056881 178.25213691 -294.38760006 177.16914862 C-291.58969677 174.9253245 -288.84168326 172.63327351 -286.10635006 170.31367987 C-285.19885006 169.55442206 -284.29135006 168.79516425 -283.35635006 168.01289862 C-276.41220417 161.98609018 -270.90946674 155.36520821 -265.42519772 148.04561347 C-264.20081564 146.43773371 -262.92687086 144.86792714 -261.64931881 143.30196112 C-232.91020186 107.78431255 -217.38785178 61.45454802 -208.10635006 17.31367987 C-169.30447408 10.25740304 -130.42932777 5.31866938 -91.10635006 2.31367987 C-89.87644848 2.2187374 -88.6465469 2.12379493 -87.37937558 2.02597541 C-58.28452599 -0.12087787 -29.15741658 -0.02837781 0 0 Z M-100.73135006 86.56367987 C-102.23684918 86.72075415 -102.23684918 86.72075415 -103.77276242 86.88100165 C-128.39462504 89.45939126 -152.93912964 92.88482882 -177.10635006 98.31367987 C-177.3741528 99.50114814 -177.3741528 99.50114814 -177.64736569 100.71260566 C-178.28893183 103.54198988 -178.94637789 106.36738296 -179.61025631 109.19160956 C-179.94747139 110.63406697 -180.28066047 112.07747026 -180.61025631 113.52168769 C-186.33519757 138.48879259 -194.94690857 163.22715781 -208.10635006 185.31367987 C-208.62455319 186.18637519 -209.14275631 187.0590705 -209.67666256 187.95821112 C-227.44621145 216.84405919 -253.52850771 241.00048221 -287.10635006 249.31367987 C-300.62368852 252.3308333 -314.30115965 252.95859398 -328.10635006 253.31367987 C-329.52476417 259.86053938 -330.56894491 266.33031229 -331.16885006 273.00117987 C-331.29235837 274.35674994 -331.29235837 274.35674994 -331.41836178 275.73970526 C-338.72785817 359.91470768 -327.1636536 446.65485629 -218.10635006 709.31367987 C-217.6527612 709.96159491 -217.19917233 710.60950995 -216.73183835 711.27705878 C-202.74433112 731.24356015 -187.26662517 750.07217355 -171.10635006 768.31367987 C-170.48784176 769.0170246 -169.86933346 769.72036933 -169.23208249 770.44502753 C-163.56516631 776.82603759 -157.65717418 782.91779307 -151.61294186 788.93745917 C-150.03860852 790.50640348 -148.46973417 792.08066546 -146.90127194 793.65547675 C-141.47574503 799.08500836 -135.97143019 804.3562239 -130.10635006 809.31367987 C-128.95330249 810.31026196 -127.80094234 811.30764004 -126.64931881 812.30586737 C-119.55126368 818.41342354 -112.39095844 824.42882033 -105.10635006 830.31367987 C-103.9668692 831.24708084 -102.8275555 832.18068589 -101.68838131 833.11446112 C-92.4618766 840.63692722 -82.9272823 847.59024037 -73.10635006 854.31367987 C-72.25524655 854.90100898 -71.40414303 855.48833808 -70.5272485 856.09346503 C-53.79975946 867.60378587 -36.53391805 878.0849969 -18.96133053 888.24043769 C-17.18336452 889.26912137 -15.4082629 890.30258785 -13.63369381 891.33711737 C-10.59417528 893.10011127 -7.5419773 894.83765589 -4.48135006 896.56367987 C-3.60591549 897.07124823 -2.73048092 897.57881659 -1.82851803 898.10176581 C-1.02043698 898.5481037 -0.21235592 898.99444159 0.62021244 899.45430487 C1.30679935 899.84134589 1.99338626 900.22838691 2.70077884 900.62715644 C6.6127533 901.85188057 9.84580836 900.76456573 13.51718509 899.18477362 C14.39680912 898.71168769 15.27643314 898.23860175 16.18271244 897.75117987 C17.1926929 897.21025702 18.20267337 896.66933417 19.24325931 896.11201972 C20.32413822 895.51856757 21.40501712 894.92511542 22.51864994 894.31367987 C23.65366947 893.69573554 24.788689 893.0777912 25.95810306 892.44112128 C52.05629454 878.1339561 76.91782551 861.92893187 100.89364994 844.31367987 C101.46841068 843.89489569 102.04317142 843.47611151 102.63534915 843.04463691 C109.59023023 837.97668965 116.2058989 832.6028241 122.73349369 827.00508612 C125.61953771 824.53346643 128.56090003 822.13673349 131.51864994 819.75117987 C136.19425649 815.94671981 140.66569898 811.95816334 145.09286869 807.86836737 C147.24231629 805.90778337 149.41383076 803.99627042 151.6158179 802.09639472 C155.60141393 798.61234595 159.39400203 794.97444704 163.13974369 791.23555487 C163.79515644 790.58347052 164.45056919 789.93138617 165.12584293 789.25954169 C166.5010004 787.88940749 167.87484249 786.5179519 169.2474097 785.14522284 C171.31744209 783.07737327 173.39534666 781.01766462 175.47372806 778.95821112 C182.75115272 771.7113719 189.5416957 764.39258493 195.89364994 756.31367987 C197.84741958 753.99964682 199.84075867 751.72120978 201.83114994 749.43867987 C207.45064207 742.92296407 212.76689818 736.22381287 217.89364994 729.31367987 C218.36850833 728.6754328 218.84336673 728.03718573 219.33261478 727.37959784 C241.34976558 697.66035936 260.39702824 666.38054836 276.89364994 633.31367987 C277.7079346 631.68897773 277.7079346 631.68897773 278.53866947 630.03145331 C319.06563824 548.77682511 339.50824359 458.57409858 342.89364994 255.31367987 C342.56364994 254.65367987 342.23364994 253.99367987 341.89364994 253.31367987 C341.28593753 253.29909735 340.67822513 253.28451483 340.0520972 253.26949042 C301.72620147 252.24789972 269.89652067 242.39393658 242.74130619 214.06953925 C236.72509844 207.64502932 231.64348331 200.72727116 226.89364994 193.31367987 C226.17693119 192.20895331 225.46021244 191.10422675 224.72177494 189.96602362 C207.05689425 162.04018555 197.05426521 130.77763114 191.89364994 98.31367987 C132.61222016 86.3420797 72.7443301 81.89980749 12.33017337 82.05293769 C7.80031417 82.064331 3.27069015 82.05752471 -1.25916111 82.04606742 C-34.49298019 81.97474775 -67.66980149 83.00375868 -100.73135006 86.56367987 Z " fill="#FFFFFF" transform="translate(528.1063500642776,137.68632012605667)"/>
<path d="M0 0 C0.7415332 0.21430664 1.48306641 0.42861328 2.24707031 0.64941406 C27.11411067 8.13239993 53.34334325 23.23890541 67 46 C67.33 31.81 67.66 17.62 68 3 C87.14 3 106.28 3 126 3 C126.06791892 43.57007902 126.12158263 84.140143 126.15319599 124.7102675 C126.15694779 129.50761007 126.16083079 134.30495252 126.16479492 139.10229492 C126.16558185 140.05729837 126.16636878 141.01230181 126.16717956 141.99624475 C126.18020841 157.42872537 126.20384826 172.86117221 126.23145839 188.29363284 C126.25958292 204.14666645 126.27619111 219.99968246 126.28226548 235.85273999 C126.28636735 245.62294284 126.29928942 255.39305021 126.3237494 265.16322365 C126.33969374 271.87681848 126.34438083 278.59036446 126.34050413 285.30397681 C126.33859601 289.16857947 126.34137351 293.03301613 126.35761642 296.89758873 C126.43394661 316.00332416 126.15582338 334.67351838 120.3125 353.0625 C120.05976318 353.87775146 119.80702637 354.69300293 119.54663086 355.53295898 C115.38986093 368.47804263 109.91992031 380.90535683 102 392 C101.32324219 392.96035156 100.64648438 393.92070313 99.94921875 394.91015625 C74.59850605 429.80678563 37.57742139 451.41474822 -4.75 458.25 C-13.1444573 459.53095223 -21.5014326 460.76922426 -30 461 C-30.70882324 461.02046387 -31.41764648 461.04092773 -32.14794922 461.06201172 C-86.87821107 462.42100242 -141.70475737 449.44178684 -183 412 C-184.69119612 410.35525302 -186.34837581 408.68489867 -188 407 C-186.43465324 401.87794762 -183.25369694 398.34200761 -179.875 394.3125 C-178.68726369 392.87389298 -177.49976284 391.43509153 -176.3125 389.99609375 C-175.73886719 389.30499512 -175.16523438 388.61389648 -174.57421875 387.90185547 C-168.87006729 381.01051864 -163.37327068 373.94802559 -157.85498047 366.90771484 C-155.25453436 363.5905581 -152.6391251 360.28657401 -150 357 C-146.39745641 358.50785196 -144.2807428 360.60500981 -141.625 363.4375 C-115.64789861 389.87234767 -80.22128482 404.8285901 -43.26855469 405.24145508 C-15.43100186 405.30787956 14.45930913 401.55993769 36 382 C36.52980469 381.43925781 37.05960938 380.87851562 37.60546875 380.30078125 C39 379 39 379 41 379 C41.25523437 378.42894531 41.51046875 377.85789062 41.7734375 377.26953125 C43.13455763 374.75102552 44.75018026 372.84989169 46.625 370.6875 C66.52991206 346.01407906 67.48943847 315.65636645 67.1875 285.3125 C67.17067391 282.65300246 67.15873423 279.99351017 67.14648438 277.33398438 C67.11379727 270.88913758 67.06389695 264.44460908 67 258 C66.38729248 258.89058105 65.77458496 259.78116211 65.14331055 260.69873047 C64.32867374 261.87992451 63.5139731 263.06107453 62.69921875 264.2421875 C62.2966687 264.82766357 61.89411865 265.41313965 61.47937012 266.01635742 C44.30697162 290.88793305 16.34350931 303.69037428 -12.6328125 309.2734375 C-50.61404195 315.87099725 -92.97149392 309.10929773 -125 287 C-142.32350576 274.75961397 -157.74937541 260.07010888 -169 242 C-169.3722168 241.40380859 -169.74443359 240.80761719 -170.12792969 240.19335938 C-191.14979005 205.96339067 -197.81075827 164.46867206 -191 125 C-190.87641113 124.2682959 -190.75282227 123.5365918 -190.62548828 122.78271484 C-183.72759314 83.36019896 -163.83399908 46.73775169 -130.79296875 23.23339844 C-93.83327491 -2.19148899 -43.64040951 -12.6362931 0 0 Z M-87 65 C-87.71929688 65.49886719 -88.43859375 65.99773437 -89.1796875 66.51171875 C-111.10788291 82.6262111 -125.01554212 106.58602662 -129.3984375 133.40234375 C-133.51243478 162.2321668 -130.6369183 194.13384505 -112.98046875 218.234375 C-97.14853683 238.88617122 -75.31340877 251.61749158 -49.53515625 255.4296875 C-22.76618838 258.96312129 5.9574284 256.26759334 28.53515625 240.1953125 C39.69438242 231.60598541 47.9870074 222.09532503 55 210 C55.5671875 209.04480469 56.134375 208.08960938 56.71875 207.10546875 C70.98053129 181.09227073 71.17083304 146.69435139 63.40795898 118.65405273 C59.27843134 105.01594483 52.65942375 91.58127746 43 81 C42.34 81 41.68 81 41 81 C40.66355469 80.15501953 40.66355469 80.15501953 40.3203125 79.29296875 C32.61183452 65.90575996 12.52539616 57.85199555 -1.49487305 53.82861328 C-9.59329304 51.67597693 -17.64204925 50.47777447 -26 50 C-27.22847656 49.92910156 -28.45695312 49.85820313 -29.72265625 49.78515625 C-49.48060356 49.25686889 -70.64804684 53.42469266 -87 65 Z " fill="#FFFFFF" transform="translate(2496,509)"/>
<path d="M0 0 C10.15173355 -0.53634174 20.30003483 -0.943174 30.46311951 -1.19167995 C35.18497503 -1.31106792 39.89705775 -1.47235169 44.61328125 -1.73510742 C74.88134142 -3.37704254 74.88134142 -3.37704254 83.18774414 2.1031189 C88.41853808 7.35231476 91.66560839 13.43601917 94.67773438 20.150177 C96.46132522 23.99427467 98.75279683 27.30253543 101.21875 30.73046875 C102.64831015 32.88116823 104.07551613 35.03343497 105.5 37.1875 C106.57894531 38.81268555 106.57894531 38.81268555 107.6796875 40.47070312 C109.10035078 42.61067335 110.5202962 44.75112035 111.93945312 46.89208984 C117.73575121 55.63461054 123.57541181 64.34386484 129.5 73 C134.05905562 79.66102022 138.57273556 86.34918117 143.04345703 93.06982422 C146.06064739 97.58845645 149.1246112 102.0747752 152.1875 106.5625 C157.93397071 114.99186133 163.64916274 123.44174012 169.34375 131.90625 C170.3090136 133.34036476 170.3090136 133.34036476 171.29377747 134.80345154 C176.52904686 142.58183461 176.52904686 142.58183461 179.12265015 146.4446106 C180.96924422 149.19478828 182.81840934 151.94322227 184.66796875 154.69140625 C185.49216309 155.92141357 185.49216309 155.92141357 186.33300781 157.17626953 C189.74165554 162.23518949 193.29034665 167.15740844 197 172 C197.29891647 171.54425095 197.59783295 171.08850189 197.9058075 170.61894226 C215.13384425 144.35836069 232.53700376 118.22513605 250.13244629 92.2094574 C257.14192989 81.84019125 264.11435959 71.44408068 270.99462891 60.98852539 C272.415315 58.87133297 273.856462 56.79577407 275.34521484 54.72827148 C279.84685674 48.3708314 283.44891115 42.21951273 286.39242554 34.98536682 C291.92336391 21.66082053 298.66639421 6.95066503 312 0 C335.7007894 -7.58505942 365.71671536 -2.54025059 390 0 C385.80031673 7.45432623 385.80031673 7.45432623 383.40625 10.8046875 C382.93977051 11.46122314 382.47329102 12.11775879 381.99267578 12.79418945 C381.50009277 13.48085693 381.00750977 14.16752441 380.5 14.875 C379.4244108 16.38667011 378.34889189 17.89839023 377.2734375 19.41015625 C376.45504395 20.55701904 376.45504395 20.55701904 375.62011719 21.72705078 C373.11065372 25.24771155 370.61751881 28.77983231 368.125 32.3125 C367.63725098 33.00303467 367.14950195 33.69356934 366.64697266 34.4050293 C362.70639448 39.98762149 358.789357 45.58650321 354.875 51.1875 C350.60697562 57.29455432 346.3101815 63.37762366 341.96386719 69.42919922 C337.25108283 76.01306892 332.65042413 82.67524095 328.03271484 89.32592773 C322.54178799 97.23102477 317.00672169 105.10358279 311.44433594 112.95849609 C309.94239747 115.08141858 308.44344955 117.20642462 306.9453125 119.33203125 C302.31505 125.9011243 297.67741868 132.46437727 293 139 C284.59552689 150.74883681 276.29429402 162.56705703 268.0625 174.4375 C262.57513427 182.34980491 257.0218505 190.20704552 251.33618164 197.97827148 C249.87835484 199.97687764 248.43786103 201.98699456 247 204 C246.14196777 205.17030762 246.14196777 205.17030762 245.26660156 206.36425781 C244.70682617 207.15413086 244.14705078 207.94400391 243.5703125 208.7578125 C243.05484863 209.47340332 242.53938477 210.18899414 242.00830078 210.92626953 C240.80910614 212.92903403 240.80910614 212.92903403 241.21362305 215.06591797 C242.5468816 218.34504688 244.65235035 221.12759851 246.6875 224 C247.17371826 224.69641602 247.65993652 225.39283203 248.16088867 226.11035156 C249.21625769 227.62034875 250.27439331 229.12841521 251.33496094 230.63476562 C253.01282662 233.01822057 254.6831458 235.40679804 256.3515625 237.796875 C259.29648306 242.01336105 262.24811969 246.22509578 265.20166016 250.43554688 C268.13724982 254.62173121 271.06846351 258.81097677 274 263 C277.47541954 267.96564538 280.95131434 272.93095426 284.4296875 277.89453125 C291.31517947 287.72200615 298.17953873 297.56387571 305.02758789 307.41748047 C309.44205192 313.7672498 313.87241227 320.10562868 318.3125 326.4375 C322.80282089 332.8430496 327.26057368 339.2692725 331.68359375 345.72143555 C343.0076042 362.22675353 354.51216908 378.60850639 366 395 C374.80163684 407.5586784 383.5859553 420.12910264 392.33203125 432.7265625 C394.54760325 435.91675807 396.77144509 439.10054395 399.01171875 442.2734375 C399.65596802 443.19008179 399.65596802 443.19008179 400.31323242 444.12524414 C401.40364989 445.67551674 402.49848776 447.22267767 403.59375 448.76953125 C405 451 405 451 405 453 C394.57765956 453.25534734 384.15606778 453.45055513 373.73123169 453.56993389 C368.88984382 453.62724491 364.05060186 453.704909 359.21044922 453.82983398 C354.53534029 453.94973809 349.86228874 454.01520053 345.1857605 454.04364967 C343.40574753 454.06390962 341.62584208 454.10347888 339.84671021 454.16303062 C325.91617778 454.61059056 325.91617778 454.61059056 321.17782593 450.62789917 C319.11939777 447.83306779 317.53541729 445.10645686 316 442 C315.07370623 440.56566249 314.13231486 439.14072901 313.1640625 437.734375 C312.31438978 436.4083706 311.46795349 435.08028598 310.625 433.75 C307.31579091 428.55433095 303.94670792 423.40250541 300.5234375 418.28125 C296.42934858 412.15617513 292.36355505 406.01299573 288.3125 399.859375 C287.43295654 398.52340523 287.43295654 398.52340523 286.53564453 397.16044617 C285.31772532 395.3102161 284.09989235 393.45992926 282.88214111 391.60958862 C273.48482633 377.33199049 264.06900948 363.0681927 254.56689453 348.86010742 C247.30496707 337.98764839 240.13297954 327.05628381 232.96337891 316.12280273 C227.67505474 308.05953948 222.3617074 300.0147402 217 292 C216.15076061 290.72674991 215.30176054 289.45334014 214.453125 288.1796875 C213.72609375 287.08914063 212.9990625 285.99859375 212.25 284.875 C206.5 276.25 200.75 267.625 195 259 C191.74465104 262.93299877 188.89016362 267.03377031 186.078125 271.28515625 C185.61444519 271.98209091 185.15076538 272.67902557 184.67303467 273.39707947 C183.19650133 275.61744118 181.72318437 277.83991525 180.25 280.0625 C179.27625743 281.52813816 178.30230091 282.99363421 177.328125 284.45898438 C175.42665121 287.31975772 173.52630842 290.18127675 171.62695312 293.04345703 C168.09297663 298.36786891 164.54660395 303.68399446 161 309 C159.6601202 311.01039264 158.32027686 313.02080958 156.98046875 315.03125 C154.423714 318.86669264 151.86376374 322.69996659 149.30078125 326.53125 C142.29767446 337.00796165 135.31993359 347.50039155 128.3984375 358.03125 C114.68534992 378.89241383 100.88537481 399.68791876 86.89331055 420.36328125 C86.32995499 421.20025543 85.76659943 422.03722961 85.18617249 422.89956665 C84.06562913 424.54598973 82.92794451 426.18088486 81.77293396 427.80331421 C78.93689643 431.83283599 76.65885856 435.59342527 74.87646484 440.19775391 C72.5492623 445.66081706 70.30194628 449.99464737 65 453 C53.13675015 455.82495536 40.56456792 454.77867417 28.48175049 454.23596191 C23.91771125 454.05057363 19.35188859 453.9693613 14.78515625 453.87890625 C5.85205153 453.68683114 -3.07306807 453.3803976 -12 453 C-10.56631904 449.2604854 -8.98583262 446.3867021 -6.5625 443.1875 C-3.17362789 438.62414514 0.10264985 434.00346997 3.3125 429.3125 C4.01487793 428.28721191 4.01487793 428.28721191 4.73144531 427.24121094 C5.68764162 425.84439519 6.64336981 424.44725887 7.59863281 423.04980469 C9.79099168 419.84300241 11.98817918 416.63953074 14.1875 413.4375 C14.84842651 412.47517456 14.84842651 412.47517456 15.52270508 411.4934082 C20.34831218 404.47749054 25.21920071 397.49312622 30.08544922 390.50537109 C35.32032641 382.98514166 40.52438488 375.44449698 45.70556641 367.88720703 C48.42754894 363.91871872 51.15571778 359.95447812 53.8828125 355.98950195 C56.13927288 352.70828576 58.39401822 349.42592375 60.64453125 346.140625 C65.68063471 338.79391504 70.75823463 331.47829339 75.875 324.1875 C82.15062831 315.24339971 88.33348606 306.23859407 94.49023438 297.21240234 C101.5288766 286.89801427 108.64224393 276.63868091 115.81274414 266.41552734 C119.79319585 260.73630772 123.74032308 255.03575242 127.65820312 249.31323242 C130.46458576 245.21922145 133.29237679 241.1407871 136.1328125 237.0703125 C136.8542041 236.03624268 137.5755957 235.00217285 138.31884766 233.93676758 C139.74681376 231.89135877 141.1761244 229.84688781 142.60693359 227.8034668 C143.26258301 226.86414307 143.91823242 225.92481934 144.59375 224.95703125 C145.17833984 224.12147705 145.76292969 223.28592285 146.36523438 222.42504883 C148.00145288 219.99784476 149.51714519 217.52327211 151 215 C145.2782922 206.58370035 139.48487058 198.23176557 133.5 190 C129.41882804 184.38606392 125.40795224 178.73589994 121.5 173 C117.07696223 166.51110259 112.51580764 160.13269964 107.90405273 153.77685547 C99.19577881 141.76907761 90.71624349 129.59987796 82.21337891 117.44628906 C74.42002864 106.30925008 66.6041588 95.19244991 58.625 84.1875 C52.20434672 75.33019724 45.93571105 66.37019651 39.67578125 57.39892578 C32.9654948 47.79297084 26.18781804 38.23853849 19.3125 28.75 C15.48478922 23.46252096 11.67034381 18.16752769 7.9375 12.8125 C7.26589844 11.84957031 6.59429688 10.88664062 5.90234375 9.89453125 C4.47649025 7.72500878 3.15874735 5.57341599 1.88110352 3.3190918 C1.26033936 2.2237915 0.6395752 1.12849121 0 0 Z " fill="#FFFFFF" transform="translate(2676,363)"/>
<path d="M0 0 C19.47 0 38.94 0 59 0 C59 159.72 59 319.44 59 484 C39.53 484 20.06 484 0 484 C-0.33 470.47 -0.66 456.94 -1 443 C-3.97 446.3 -6.94 449.6 -10 453 C-11.62449243 454.70779973 -13.29220027 456.37550757 -15 458 C-16.00546875 458.98033203 -16.00546875 458.98033203 -17.03125 459.98046875 C-42.21279365 483.73124288 -77.4933443 492.91099485 -111.43359375 492.25 C-150.52484756 490.86550367 -185.87337476 477.12895504 -214 450 C-214.91394531 449.16082031 -215.82789063 448.32164062 -216.76953125 447.45703125 C-247.91204372 418.00753091 -259.61031532 375.24631637 -261.1875 333.6875 C-261.91761864 288.42014458 -246.29855591 247.57401844 -215.51171875 214.515625 C-187.9944367 186.9555478 -148.46101915 172.89930737 -109.96313477 172.61962891 C-108.57958876 172.61917698 -107.19604033 172.62101001 -105.8125 172.625 C-104.73607742 172.62581573 -104.73607742 172.62581573 -103.63790894 172.62664795 C-91.70596629 172.66801453 -80.49938646 173.69258658 -69 177 C-68.25331055 177.20367187 -67.50662109 177.40734375 -66.73730469 177.6171875 C-39.97120573 185.05795632 -18.26193544 200.4225807 -1 222 C-0.67 148.74 -0.34 75.48 0 0 Z M-171.78125 256.54296875 C-184.5819059 270.71834298 -191.90104838 286.45930081 -196 305 C-196.18546387 305.80751709 -196.37092773 306.61503418 -196.56201172 307.44702148 C-198.22049905 315.41915262 -198.39865774 323.31739971 -198.375 331.4375 C-198.37445618 332.14076416 -198.37391235 332.84402832 -198.37335205 333.56860352 C-198.33141772 345.39743871 -197.39020634 356.61877857 -194 368 C-193.79101074 368.70463379 -193.58202148 369.40926758 -193.36669922 370.13525391 C-188.40782219 386.13366842 -179.86515598 399.29050934 -168 411 C-167.26007813 411.73863281 -166.52015625 412.47726562 -165.7578125 413.23828125 C-143.92558857 433.83094668 -116.04663791 437.75596955 -87.27099609 437.13183594 C-80.92728532 436.8761557 -75.0936709 435.83226551 -69 434 C-67.99501465 433.70996094 -67.99501465 433.70996094 -66.96972656 433.4140625 C-43.28224285 426.44019178 -24.84072644 410.86976695 -12.796875 389.30664062 C2.01938952 361.94672586 4.23314259 327.77478184 -3.8125 297.9375 C-8.8037465 281.53244718 -15.72271582 268.94048077 -27 256 C-27.55171875 255.36320312 -28.1034375 254.72640625 -28.671875 254.0703125 C-46.09297425 235.35556726 -72.02886051 228.03989121 -96.78125 226.8125 C-125.88495297 226.32336213 -151.32205958 235.399404 -171.78125 256.54296875 Z " fill="#FFFFFF" transform="translate(2173,332)"/>
<path d="M0 0 C234.40132874 0 234.40132874 0 273.6875 38.1875 C298.0189086 62.7005405 305.26178764 96.48314948 305.24902344 130.00195312 C304.79763047 161.04390028 295.55576169 189.50770092 275 213 C274.35804688 213.7425 273.71609375 214.485 273.0546875 215.25 C247.77154284 242.39380899 209.68296452 251.9004266 174 254 C165.15275012 254.31034159 156.30034008 254.23554963 147.44921875 254.1953125 C145.24662376 254.1923618 143.04402735 254.19032771 140.84143066 254.18920898 C132.79009867 254.1788406 124.73879695 254.15091902 116.6875 254.125 C89.6171875 254.063125 89.6171875 254.063125 62 254 C62 319.67 62 385.34 62 453 C41.54 453 21.08 453 0 453 C0 303.51 0 154.02 0 0 Z M62 54 C62 101.85 62 149.7 62 199 C77.819375 199.04125 93.63875 199.0825 109.9375 199.125 C117.37978149 199.15231201 117.37978149 199.15231201 124.97241211 199.18017578 C129.49072891 199.18687209 129.49072891 199.18687209 134.00904846 199.19088745 C135.99331057 199.19392221 137.97756941 199.20087887 139.96180725 199.21115112 C169.24367483 199.35492296 199.42093066 197.07356303 222.125 176.4375 C233.55681036 164.38087409 238.33239649 148.34177294 239 132 C239.03996094 131.32582031 239.07992188 130.65164063 239.12109375 129.95703125 C239.69848918 111.8539863 235.07855036 93.51581275 223.4375 79.375 C205.39005057 60.23169026 178.61399938 54.91731197 153.35385513 53.89266205 C146.76345799 53.73301586 140.17372164 53.76885015 133.58203125 53.8046875 C131.73482383 53.8076392 129.88761471 53.80967267 128.04040527 53.81079102 C121.29774417 53.82114776 114.5551192 53.84906906 107.8125 53.875 C92.694375 53.91625 77.57625 53.9575 62 54 Z " fill="#FFFFFF" transform="translate(1054,363)"/>
<path d="M0 0 C1.10066803 -0.01058945 1.10066803 -0.01058945 2.22357178 -0.02139282 C44.77072396 -0.33763456 81.90605611 8.51518813 113.609375 38.453125 C139.90356251 65.75378858 152.59712941 103.0983033 156.046875 140.203125 C156.15773438 141.24082031 156.26859375 142.27851562 156.3828125 143.34765625 C157.53474383 155.97220098 157.046875 168.4729865 157.046875 181.203125 C76.856875 181.203125 -3.333125 181.203125 -85.953125 181.203125 C-81.53518253 210.65607478 -73.28301874 230.00041857 -49.328125 247.765625 C-25.22238221 264.02474103 5.50235059 271.50797614 34.28222656 266.07177734 C52.25800627 262.15338293 67.97977739 253.61744968 81.15625 240.85546875 C83.046875 239.203125 83.046875 239.203125 85.046875 239.203125 C85.046875 238.543125 85.046875 237.883125 85.046875 237.203125 C86.421875 235.578125 86.421875 235.578125 88.046875 234.203125 C88.706875 234.203125 89.366875 234.203125 90.046875 234.203125 C90.31242187 233.62046875 90.57796875 233.0378125 90.8515625 232.4375 C92.07990496 230.14138272 93.45002439 228.39956482 95.171875 226.453125 C95.71070313 225.83953125 96.24953125 225.2259375 96.8046875 224.59375 C97.41957031 223.90539062 97.41957031 223.90539062 98.046875 223.203125 C103.26769328 224.80321862 107.03769923 228.09959213 111.234375 231.453125 C112.83441798 232.71642128 114.43468526 233.97943351 116.03515625 235.2421875 C116.85709473 235.89348633 117.6790332 236.54478516 118.52587891 237.21582031 C121.03511682 239.19385601 123.55906931 241.15117769 126.08984375 243.1015625 C126.89977783 243.72643555 127.70971191 244.35130859 128.54418945 244.99511719 C130.09752917 246.19261946 131.65200602 247.38864853 133.20776367 248.58300781 C136.7011816 251.28671676 140.02575884 253.96056577 143.046875 257.203125 C112.48140015 293.3898366 74.71597808 314.42209333 27.23828125 318.765625 C-16.21031465 322.19324409 -59.97715025 313.79492889 -93.953125 285.203125 C-95.93139206 283.34597633 -97.83689448 281.46742366 -99.68359375 279.48046875 C-100.94737309 278.07302748 -100.94737309 278.07302748 -102.953125 277.203125 C-102.953125 276.543125 -102.953125 275.883125 -102.953125 275.203125 C-103.613125 275.203125 -104.273125 275.203125 -104.953125 275.203125 C-107.73036341 272.22038269 -110.20245805 268.9879183 -112.71533203 265.78076172 C-113.87691224 264.30026245 -115.05319868 262.83133501 -116.23046875 261.36328125 C-144.0837887 225.6777448 -152.24771819 177.53745415 -147.3046875 133.30859375 C-141.64520058 92.74893746 -119.97752745 55.65968941 -87.703125 30.4453125 C-85.17078745 28.6059457 -82.5869995 26.89431251 -79.953125 25.203125 C-79.38303711 24.83074707 -78.81294922 24.45836914 -78.22558594 24.07470703 C-55.13045206 9.14530965 -27.62544153 0.17808405 0 0 Z M-60.265625 75.140625 C-72.54842444 87.64678369 -80.7139602 103.22251572 -84.953125 120.203125 C-85.15035156 120.96238281 -85.34757812 121.72164062 -85.55078125 122.50390625 C-86.12606161 126.36331139 -85.953125 130.30107995 -85.953125 134.203125 C-26.223125 134.203125 33.506875 134.203125 95.046875 134.203125 C92.75181471 111.2525221 89.57315826 92.28686538 75.046875 74.203125 C74.60085938 73.58179688 74.15484375 72.96046875 73.6953125 72.3203125 C62.95526866 58.15399701 43.49115401 50.22967639 26.45410156 47.83935547 C-6.97298162 43.84690748 -35.63833599 50.87567206 -60.265625 75.140625 Z " fill="#FFFFFF" transform="translate(1701.953125,504.796875)"/>
<path d="M0 0 C19.14 0 38.28 0 58 0 C58 159.72 58 319.44 58 484 C38.86 484 19.72 484 0 484 C0 324.28 0 164.56 0 0 Z " fill="#FFFFFF" transform="translate(1423,332)"/>
</svg>
